<mxfile host="app.diagrams.net" modified="2021-05-14T12:26:31.704Z" agent="5.0 (Windows NT 10.0; Win64; x64) AppleWebKit/537.36 (KHTML, like Gecko) Chrome/90.0.4430.212 Safari/537.36" etag="YcWd070y81pngUbsnGI0" version="14.6.12" type="github">
  <diagram id="d6FZygUJHuY2WhgeGZ7e" name="Page-1">
    <mxGraphModel dx="920" dy="625" grid="1" gridSize="10" guides="1" tooltips="1" connect="1" arrows="1" fold="1" page="1" pageScale="1" pageWidth="850" pageHeight="1100" math="0" shadow="0">
      <root>
        <mxCell id="0" />
        <mxCell id="1" parent="0" />
        <mxCell id="FqFYivniVrYj0mMcYrMc-3" value="" style="edgeStyle=orthogonalEdgeStyle;rounded=0;orthogonalLoop=1;jettySize=auto;html=1;" edge="1" parent="1" source="FqFYivniVrYj0mMcYrMc-1" target="FqFYivniVrYj0mMcYrMc-2">
          <mxGeometry relative="1" as="geometry" />
        </mxCell>
        <mxCell id="FqFYivniVrYj0mMcYrMc-1" value="开始" style="ellipse;whiteSpace=wrap;html=1;" vertex="1" parent="1">
          <mxGeometry x="110" y="50" width="120" height="81" as="geometry" />
        </mxCell>
        <mxCell id="FqFYivniVrYj0mMcYrMc-2" value="生成验证码token" style="whiteSpace=wrap;html=1;" vertex="1" parent="1">
          <mxGeometry x="110" y="190" width="120" height="60" as="geometry" />
        </mxCell>
      </root>
    </mxGraphModel>
  </diagram>
</mxfile>
